<?xml version="1.0" encoding="utf-8"?>
<!-- Generator: Adobe Illustrator 25.0.1, SVG Export Plug-In . SVG Version: 6.00 Build 0)  -->
<svg version="1.1" id="Layer_1" xmlns:serif="http://www.serif.com/"
	 xmlns="http://www.w3.org/2000/svg" xmlns:xlink="http://www.w3.org/1999/xlink" x="0px" y="0px" viewBox="0 0 841.9 595.3"
	 style="enable-background:new 0 0 841.9 595.3;" xml:space="preserve">
<style type="text/css">
	.st0{fill-rule:evenodd;clip-rule:evenodd;fill:#22C45E;}
</style>
<g>
	<polygon class="st0" points="787.7,76.1 787.7,223.8 738.5,223.8 738.5,273 689.3,273 689.3,223.8 738.5,223.8 738.5,174.6 
		640,174.6 640,223.8 590.8,223.8 590.8,371.5 640,371.5 640,420.7 738.5,420.7 738.5,371.5 787.7,371.5 787.7,420.7 837,420.7 
		837,76.1 	"/>
	<polygon class="st0" points="492.3,273 443.1,273 443.1,223.8 492.3,223.8 492.3,174.6 344.6,174.6 344.6,223.8 295.4,223.8 
		295.4,371.5 344.6,371.5 344.6,420.7 492.3,420.7 492.3,371.5 541.6,371.5 541.6,223.8 492.3,223.8 	"/>
	<polygon class="st0" points="196.9,223.8 196.9,273 147.7,273 147.7,223.8 196.9,223.8 196.9,174.6 98.5,174.6 98.5,223.8 
		49.2,223.8 49.2,174.6 0,174.6 0,519.2 49.2,519.2 49.2,371.5 98.5,371.5 98.5,420.7 196.9,420.7 196.9,371.5 246.2,371.5 
		246.2,223.8 	"/>
</g>
</svg>
